<svg width="29" height="6" viewBox="0 0 29 6" fill="none" xmlns="http://www.w3.org/2000/svg">
<path d="M2.76776 3.19606C2.98465 3.19606 3.16048 3.07838 3.16048 2.93321C3.16048 2.78803 2.98465 2.67035 2.76776 2.67035C2.55086 2.67035 2.37503 2.78803 2.37503 2.93321C2.37503 3.07838 2.55086 3.19606 2.76776 3.19606Z" fill="#34CE71"/>
<path d="M5.46747 2.93321C5.46747 3.07838 5.29164 3.19606 5.07474 3.19606C4.85784 3.19606 4.68201 3.07838 4.68201 2.93321C4.68201 2.78803 4.85784 2.67035 5.07474 2.67035C5.29164 2.67035 5.46747 2.78803 5.46747 2.93321Z" fill="#34CE71"/>
<path fill-rule="evenodd" clip-rule="evenodd" d="M2.69924 0.413283H2.92709V0H2.66119C1.58381 0 0.823499 0.293097 0.823499 0.984436C0.823499 1.18632 0.870395 1.38135 0.918805 1.58267C0.920855 1.59121 0.922911 1.59975 0.924965 1.60831C0.933641 1.64375 0.941875 1.67905 0.949886 1.7145C0.950243 1.71577 0.950535 1.71709 0.950833 1.71843C0.951091 1.71959 0.951355 1.72077 0.951664 1.72194C0.99216 1.89456 1.0262 2.06702 1.0262 2.23963C1.0262 2.24313 1.02615 2.24663 1.02609 2.25013C1.02604 2.25363 1.02598 2.25713 1.02598 2.26063V2.26733C1.01641 2.5226 0.867778 2.79574 0 2.79574V3.17908C0.899374 3.17908 1.0262 3.50212 1.0262 3.73505C1.0262 3.93133 0.979256 4.12748 0.930081 4.32347C0.929191 4.32682 0.928357 4.33022 0.927523 4.3336C0.926688 4.337 0.925854 4.34038 0.924965 4.34373C0.879796 4.52513 0.834181 4.71264 0.825281 4.89538C0.824169 4.91697 0.823499 4.93842 0.823499 4.96002C0.823499 5.69389 1.55823 5.97124 2.55737 5.9887L2.55684 6H3.29534L3.35787 4.71949L4.423 4.74287L4.48442 6H5.22271L5.22213 5.98808C6.20609 5.96554 6.92621 5.68649 6.92621 4.95985C6.92621 4.75702 6.87571 4.54658 6.82496 4.34373C6.774 4.1409 6.7235 3.93804 6.7235 3.73491C6.7235 3.50196 6.85013 3.17894 7.75017 3.17894V2.79558C6.84988 2.79574 6.72329 2.5025 6.72329 2.23963C6.72329 2.23069 6.72329 2.22146 6.7235 2.21252V2.2125C6.7235 2.21027 6.72349 2.2079 6.72374 2.20582V2.20582V2.20582C6.72796 2.02785 6.7669 1.84987 6.8092 1.6719C6.8093 1.6715 6.8094 1.67109 6.80951 1.67068C6.80961 1.6703 6.80971 1.66991 6.80978 1.66952C6.80992 1.66891 6.81006 1.66829 6.81019 1.66766V1.66765C6.81033 1.66709 6.81043 1.66653 6.81057 1.66595L6.81071 1.66534L6.81085 1.66483L6.81098 1.66431L6.81095 1.6643C6.81139 1.66306 6.81164 1.66188 6.81191 1.66064C6.81208 1.65995 6.81229 1.65924 6.81253 1.6585C6.8163 1.64182 6.82053 1.62499 6.82475 1.60831L6.8288 1.59148C6.8697 1.4224 6.90949 1.25782 6.92175 1.09003C6.92467 1.05503 6.92597 1.01988 6.92597 0.984436C6.92597 0.315436 6.21375 0.0193611 5.19154 0.000744657C5.18323 0.000671837 5.17488 0.000590113 5.1665 0.000508197C5.14065 0.000255037 5.11459 0 5.08853 0H4.82239V0.413283H5.05048C5.79832 0.413283 6.05175 0.653809 6.05175 1.05979C6.05175 1.09852 6.04976 1.13754 6.04619 1.177C6.04152 1.23196 6.03307 1.28766 6.0226 1.34336C6.0226 1.34338 6.0226 1.34341 6.0226 1.34343L4.65573 0.786965L4.65576 0.786951L3.94219 0.496387H3.94216L3.22904 0.786804H3.22903L1.73713 1.39423L1.73712 1.39415C1.71308 1.28096 1.69773 1.16896 1.69773 1.05979C1.69796 0.653809 1.95139 0.413283 2.69924 0.413283ZM5.90019 1.87154L3.94257 1.07649L1.85775 1.92317C1.85786 1.92417 1.85801 1.92511 1.85816 1.92605C1.85833 1.9271 1.8585 1.92814 1.85861 1.92926C1.86906 2.00536 1.87529 2.0831 1.87529 2.16442C1.88798 2.64547 1.53308 2.886 0.963012 2.97609V2.99129C1.5333 3.07394 1.8882 3.32936 1.87529 3.81025C1.87529 4.01325 1.83702 4.20106 1.78651 4.38156C1.74669 4.52975 1.7142 4.66884 1.70263 4.80974C1.69973 4.84711 1.69796 4.88465 1.69796 4.92248C1.69796 5.31829 1.95595 5.54786 2.57688 5.57382L2.64117 4.21029L5.14082 4.26317L5.20263 5.57242C5.80237 5.54049 6.05199 5.31195 6.05199 4.92248C6.05199 4.74211 6.01371 4.56907 5.9632 4.3814C5.91248 4.2009 5.87441 4.01311 5.87441 3.81011C5.86194 3.32936 6.21687 3.07378 6.78691 2.99113V2.97595C6.21687 2.88583 5.86194 2.64531 5.87441 2.16427C5.87441 2.06448 5.88354 1.97006 5.89913 1.87758L5.89916 1.87719C5.89937 1.87537 5.89961 1.87334 5.90019 1.87154Z" fill="black"/>
<path d="M19.5252 2.16022H19.5214C19.3038 2.16022 19.1677 2.06133 19.1674 1.93905C19.1674 1.80889 19.3074 1.71521 19.5252 1.71521C19.7431 1.71521 19.879 1.80889 19.883 1.93905C19.883 2.06133 19.7431 2.16022 19.5252 2.16022Z" fill="#34CE71"/>
<path fill-rule="evenodd" clip-rule="evenodd" d="M14.5329 1.72314V3.17016C14.5329 3.32893 14.5407 3.48768 14.5484 3.57362H13.9223L13.8951 3.40191H13.8873C13.763 3.54502 13.5296 3.60235 13.3119 3.60235C12.8687 3.60235 12.4994 3.34471 12.4994 2.94394C12.4953 2.51188 12.9037 2.26466 13.3547 2.26466C13.5647 2.26466 13.7358 2.30636 13.8213 2.3896H13.829V1.72314H14.5329ZM13.829 2.84744V2.84741C13.829 2.82924 13.829 2.80572 13.8251 2.78755C13.7979 2.6964 13.6967 2.62359 13.5489 2.62359C13.3157 2.62359 13.2107 2.76417 13.2107 2.93068C13.2107 3.12846 13.3547 3.23004 13.5452 3.23004C13.6891 3.23004 13.7939 3.16241 13.8173 3.07648C13.8288 3.05043 13.8288 3.02183 13.8288 2.99055V2.84744H13.829Z" fill="black"/>
<path fill-rule="evenodd" clip-rule="evenodd" d="M10.1933 2.94362C10.1933 3.36003 10.6365 3.60203 11.2082 3.60203H11.2122C11.7449 3.60203 12.2426 3.38608 12.2426 2.92023C12.2426 2.53494 11.8459 2.26434 11.2471 2.26434C10.5938 2.26434 10.1933 2.53494 10.1933 2.94362ZM11.5194 2.93319C11.5194 3.13887 11.4182 3.27157 11.2277 3.27157H11.224C11.0099 3.27157 10.9167 3.12575 10.9167 2.93319C10.9167 2.76401 10.9946 2.59483 11.2277 2.59483C11.434 2.59483 11.5194 2.75627 11.5194 2.93319Z" fill="black"/>
<path d="M9.52845 3.59951C9.74229 3.59951 9.94054 3.58134 10.0533 3.54486L9.97969 3.20143C9.89024 3.22481 9.793 3.23524 9.67242 3.23524C9.42341 3.23524 9.2096 3.13635 9.2096 2.92814C9.20559 2.74332 9.39227 2.62357 9.65281 2.62357C9.79678 2.62357 9.89004 2.63666 9.9561 2.65483L10.0533 2.31126C9.91716 2.27999 9.75005 2.26703 9.61387 2.26703C8.86738 2.26703 8.49023 2.57919 8.49023 2.94362C8.49023 3.34961 8.89073 3.59951 9.52845 3.59951Z" fill="black"/>
<path fill-rule="evenodd" clip-rule="evenodd" d="M15.5359 3.09735C15.5595 3.19884 15.781 3.25597 16.0297 3.25597C16.2085 3.25597 16.3797 3.24301 16.5508 3.20651L16.6402 3.51882C16.4108 3.57869 16.1621 3.59954 15.9249 3.59954C15.2522 3.59954 14.8711 3.35233 14.8711 2.94634C14.8711 2.64967 15.1588 2.26453 15.8626 2.26453C16.4809 2.26453 16.7452 2.56909 16.7452 2.92041C16.7452 2.99594 16.7297 3.06623 16.7181 3.09735H15.5359ZM15.8276 2.57148C16.0493 2.57148 16.0998 2.70685 16.0998 2.77969H15.5281C15.5399 2.69897 15.6216 2.57148 15.8276 2.57148Z" fill="black"/>
<path d="M17.6084 2.29309L17.8144 2.837C17.8533 2.93855 17.8805 3.03744 17.9039 3.13888H17.9154C17.9388 3.03478 17.9622 2.94363 18.0009 2.837L18.1913 2.29309H18.9263L18.2303 3.57361H17.5265L16.8461 2.29309H17.6084Z" fill="black"/>
<path d="M21.0107 1.72314H20.3069V3.57362H21.0107V1.72314Z" fill="black"/>
<path d="M21.4424 1.72314H22.1462V3.57362H21.4424V1.72314Z" fill="black"/>
<path fill-rule="evenodd" clip-rule="evenodd" d="M24.3121 3.57346C24.2925 3.50836 24.2809 3.38863 24.2809 3.26114H24.2811V2.82908C24.2811 2.50903 24.0517 2.26434 23.3947 2.26434C22.9979 2.26434 22.722 2.33716 22.6014 2.38141L22.722 2.67555C22.8504 2.62878 23.0602 2.58187 23.2625 2.58187C23.519 2.58187 23.5773 2.63921 23.5773 2.69119V2.7016C22.9281 2.7016 22.4652 2.85516 22.4652 3.19873C22.4652 3.41216 22.7062 3.60219 23.0989 3.60219C23.3052 3.60219 23.4957 3.56317 23.6278 3.46161H23.6434L23.6784 3.57346H24.3121ZM23.153 3.15435C23.153 3.03987 23.3125 2.98788 23.6 2.98786V3.09196C23.6 3.11533 23.6 3.13871 23.5922 3.15957C23.5573 3.22972 23.4523 3.27663 23.3513 3.27663C23.2309 3.27663 23.153 3.23507 23.153 3.15435Z" fill="black"/>
<path fill-rule="evenodd" clip-rule="evenodd" d="M26.5943 3.38608C26.5943 3.60993 26.5282 3.82335 26.2948 3.95858C26.077 4.08352 25.7855 4.11733 25.49 4.11733C25.2257 4.11733 24.9573 4.08352 24.7784 4.02097L24.9106 3.66697C25.0272 3.71121 25.245 3.76064 25.4627 3.76064C25.7114 3.76064 25.9059 3.66949 25.9059 3.47171V3.41454H25.8981C25.7815 3.51088 25.6104 3.55765 25.4199 3.55765C24.9533 3.55765 24.6151 3.30775 24.6151 2.93557C24.6151 2.53211 25.0038 2.26404 25.4822 2.26404C25.7154 2.26404 25.875 2.3239 25.976 2.43054H25.9838L26.0071 2.29263H26.6099C26.6021 2.37336 26.5943 2.48268 26.5943 2.68567V3.38608ZM25.8945 2.82134C25.8945 2.80048 25.8905 2.77965 25.8867 2.76148C25.8556 2.6678 25.7661 2.61566 25.638 2.61566C25.4709 2.61566 25.3269 2.72498 25.3269 2.92797C25.3269 3.09449 25.4435 3.2169 25.638 3.2169C25.7664 3.2169 25.8596 3.1597 25.883 3.08941C25.8945 3.06336 25.8945 3.02181 25.8945 2.99305V2.82134Z" fill="black"/>
<path fill-rule="evenodd" clip-rule="evenodd" d="M27.5976 3.09735C27.6212 3.19884 27.8427 3.25597 28.0914 3.25597C28.2703 3.25597 28.4413 3.24301 28.6125 3.20651L28.7019 3.51882C28.4725 3.57869 28.2237 3.59954 27.9865 3.59954C27.3139 3.59954 26.9328 3.35233 26.9328 2.94634C26.9328 2.64967 27.2205 2.26453 27.9243 2.26453C28.5426 2.26453 28.8069 2.56909 28.8069 2.92041C28.8069 2.99594 28.7914 3.06623 28.7798 3.09735H27.5976ZM27.8893 2.57148C28.1109 2.57148 28.1614 2.70685 28.1614 2.77969H27.5898C27.6016 2.69897 27.6833 2.57148 27.8893 2.57148Z" fill="black"/>
<path d="M19.8755 2.29309H19.1717V3.57361H19.8755V2.29309Z" fill="black"/>
<path d="M18.5649 2.16022H18.5687C18.7865 2.16022 18.9265 2.06133 18.9265 1.93905C18.9225 1.80889 18.7865 1.71521 18.5687 1.71521C18.3509 1.71521 18.2109 1.80889 18.2109 1.93905C18.2111 2.06133 18.3473 2.16022 18.5649 2.16022Z" fill="#34CE71"/>
<path d="M17.2038 2.16022H17.2001C16.9825 2.16022 16.8463 2.06133 16.8461 1.93905C16.8461 1.80889 16.986 1.71521 17.2038 1.71521C17.4217 1.71521 17.5576 1.80889 17.5616 1.93905C17.5616 2.06133 17.4217 2.16022 17.2038 2.16022Z" fill="#34CE71"/>
<path d="M15.6938 5.09302L15.8027 4.88307H16.266L16.3742 5.09302H16.5642L16.1374 4.29963H15.9307L15.5039 5.09302H15.6938ZM15.8548 4.78234L16.0297 4.44375H16.039L16.2139 4.78234H15.8548ZM16.8947 4.73973C16.8947 4.64481 16.9815 4.59058 17.102 4.59058C17.2196 4.59058 17.2908 4.6421 17.2908 4.7285V5.09302H17.4639V4.71453C17.4639 4.56733 17.3429 4.49024 17.161 4.49024C17.0273 4.49024 16.9399 4.53168 16.8988 4.59483H16.8877V4.49798H16.7216V5.09302H16.8947V4.73973ZM17.7737 5.31462C17.9167 5.31462 18.0076 5.26464 18.0586 5.17243L18.4263 4.49915L18.2393 4.49798L18.014 4.95977H18.0047L17.7795 4.49798H17.5942L17.9196 5.10079L17.8982 5.1403C17.8542 5.21739 17.7922 5.22435 17.6973 5.20691L17.6556 5.30183C17.6764 5.30842 17.7216 5.31462 17.7737 5.31462ZM18.9323 5.10504C19.183 5.10504 19.3469 4.98223 19.3469 4.79821C19.3469 4.61304 19.183 4.49024 18.9323 4.49024C18.6815 4.49024 18.5177 4.61304 18.5177 4.79821C18.5177 4.98223 18.6815 5.10504 18.9323 5.10504ZM18.9328 5.0078C18.769 5.0078 18.6925 4.9121 18.6925 4.79782C18.6925 4.68393 18.769 4.58709 18.9328 4.58709C19.0956 4.58709 19.172 4.68393 19.172 4.79782C19.172 4.9121 19.0956 5.0078 18.9328 5.0078ZM19.7133 4.73973C19.7133 4.64481 19.8001 4.59058 19.9206 4.59058C20.0381 4.59058 20.1094 4.6421 20.1094 4.7285V5.09302H20.2825V4.71453C20.2825 4.56733 20.1614 4.49024 19.9796 4.49024C19.8459 4.49024 19.7584 4.53168 19.7173 4.59483H19.7063V4.49798H19.5401V5.09302H19.7133V4.73973ZM20.898 5.10504C21.092 5.10504 21.2293 5.04111 21.2686 4.94426L21.1048 4.92451C21.0735 4.98067 20.9982 5.00934 20.8998 5.00934C20.7515 5.00934 20.6519 4.94504 20.6473 4.83037H21.2796V4.7893C21.2796 4.57429 21.0874 4.49024 20.8859 4.49024C20.638 4.49024 20.4747 4.61654 20.4747 4.79939C20.4747 4.98416 20.6357 5.10504 20.898 5.10504ZM20.6479 4.74359C20.6548 4.65915 20.7463 4.58592 20.887 4.58592C21.0214 4.58592 21.1094 4.65255 21.11 4.74359H20.6479ZM22.2779 5.10504C22.4881 5.10504 22.6242 5.0206 22.6433 4.90475H22.4748C22.4528 4.96907 22.3781 5.00702 22.2791 5.00702C22.1326 5.00702 22.0382 4.92529 22.0382 4.7955C22.0382 4.66806 22.1343 4.58787 22.2791 4.58787C22.3891 4.58787 22.4563 4.63434 22.4748 4.69014H22.6433C22.6248 4.57004 22.4783 4.49024 22.2762 4.49024C22.0255 4.49024 21.8633 4.61654 21.8633 4.79821C21.8633 4.97759 22.0197 5.10504 22.2779 5.10504ZM23.0873 5.10621C23.2344 5.10621 23.3172 5.05622 23.3502 5.01168H23.3571V5.09302H23.5262V4.69788C23.5262 4.52472 23.3224 4.49024 23.1811 4.49024C23.0201 4.49024 22.8719 4.53363 22.814 4.6421L22.9767 4.66689C23.0022 4.62467 23.067 4.58399 23.1834 4.58399C23.2952 4.58399 23.3525 4.62311 23.3525 4.69053V4.69324C23.3525 4.73546 23.2877 4.73468 23.1278 4.74708C22.9593 4.76024 22.7868 4.78969 22.7868 4.9249C22.7868 5.04189 22.9182 5.10621 23.0873 5.10621ZM23.125 5.01322C23.0271 5.01322 22.9564 4.98377 22.9564 4.92644C22.9564 4.86446 23.0387 4.84239 23.1388 4.83347C23.195 4.82844 23.3282 4.81836 23.3531 4.80171V4.8784C23.3531 4.94893 23.2691 5.01322 23.125 5.01322ZM23.93 4.73973C23.93 4.64481 24.0168 4.59058 24.1373 4.59058C24.2549 4.59058 24.3261 4.6421 24.3261 4.7285V5.09302H24.4992V4.71453C24.4992 4.56733 24.3782 4.49024 24.1963 4.49024C24.0626 4.49024 23.9752 4.53168 23.9341 4.59483H23.923V4.49798H23.7568V5.09302H23.93V4.73973ZM25.1768 5.09302H25.3459V5.00045H25.3604C25.3917 5.0384 25.4554 5.10465 25.6175 5.10465C25.8329 5.10465 25.9893 4.98922 25.9893 4.79667C25.9893 4.60374 25.8306 4.49024 25.6158 4.49024C25.4507 4.49024 25.3911 4.55764 25.3604 4.59444H25.35V4.29963H25.1768V5.09302ZM25.3465 4.7955C25.3465 4.67116 25.4276 4.58863 25.5787 4.58863C25.7357 4.58863 25.8144 4.67734 25.8144 4.7955C25.8144 4.91481 25.7333 5.00587 25.5787 5.00587C25.4299 5.00587 25.3465 4.92063 25.3465 4.7955ZM26.7471 4.84625C26.7477 4.94736 26.6354 4.9954 26.5381 4.9954C26.431 4.9954 26.3568 4.94348 26.3568 4.86253V4.49798H26.1837V4.87648C26.1837 5.02406 26.3047 5.10079 26.4756 5.10079C26.6093 5.10079 26.7002 5.05351 26.7413 4.98997H26.7506V5.09302H26.9209V4.49798H26.7471V4.84625ZM27.1535 5.09302H27.3266V4.49798H27.1535V5.09302ZM27.2409 4.40617C27.3006 4.40617 27.3504 4.37518 27.3504 4.33721C27.3504 4.29926 27.3006 4.26788 27.2409 4.26788C27.1807 4.26788 27.1315 4.29926 27.1315 4.33721C27.1315 4.37518 27.1807 4.40617 27.2409 4.40617ZM27.7327 4.29963H27.5595V5.09302H27.7327V4.29963ZM28.2986 5.10465C28.4607 5.10465 28.5244 5.0384 28.5557 5.00045H28.5701V5.09302H28.7392V4.29963H28.5661V4.59444H28.5557C28.5244 4.55764 28.4653 4.49024 28.2997 4.49024C28.0849 4.49024 27.9268 4.60374 27.9268 4.79667C27.9268 4.98922 28.0826 5.10465 28.2986 5.10465ZM28.3368 5.00587C28.1822 5.00587 28.1017 4.91481 28.1017 4.7955C28.1017 4.67734 28.1804 4.58863 28.3368 4.58863C28.4879 4.58863 28.569 4.67116 28.569 4.7955C28.569 4.92063 28.4862 5.00587 28.3368 5.00587Z" fill="black"/>
</svg>
